<?xml version="1.0" encoding="UTF-8" standalone="no"?><!DOCTYPE svg PUBLIC "-//W3C//DTD SVG 1.1//EN" "http://www.w3.org/Graphics/SVG/1.1/DTD/svg11.dtd"><svg width="100%" height="100%" viewBox="0 0 519 519" version="1.1" xmlns="http://www.w3.org/2000/svg" xmlns:xlink="http://www.w3.org/1999/xlink" xml:space="preserve" xmlns:serif="http://www.serif.com/" style="fill-rule:evenodd;clip-rule:evenodd;stroke-linejoin:round;stroke-miterlimit:2;"><rect id="favicon" x="0" y="0" width="518.528" height="518.528" style="fill:none;"/><clipPath id="_clip1"><rect x="0" y="0" width="518.528" height="518.528"/></clipPath><g clip-path="url(#_clip1)"><circle cx="259.264" cy="259.264" r="259.264" style="fill:#fff;"/><path d="M306.549,42.731c84.38,18.369 150.879,84.868 169.248,169.248l-48.72,-0c-16.396,-58.222 -62.306,-104.132 -120.528,-120.527l0,-48.721Zm-94.57,433.066c-84.38,-18.369 -150.879,-84.868 -169.248,-169.248l48.721,0c16.395,58.222 62.305,104.132 120.527,120.528l-0,48.72Z" style="fill:#8b2635;"/><path d="M37.666,259.264c-0,-122.303 99.295,-221.598 221.598,-221.598l0,221.598l-221.598,0Zm443.196,0c0,122.303 -99.295,221.598 -221.598,221.598l0,-221.598l221.598,0Z" style="fill:#8b2635;"/></g></svg>