<?xml version="1.0" encoding="UTF-8" standalone="no"?><!DOCTYPE svg PUBLIC "-//W3C//DTD SVG 1.1//EN" "http://www.w3.org/Graphics/SVG/1.1/DTD/svg11.dtd"><svg width="100%" height="100%" viewBox="0 0 375 375" version="1.1" xmlns="http://www.w3.org/2000/svg" xmlns:xlink="http://www.w3.org/1999/xlink" xml:space="preserve" xmlns:serif="http://www.serif.com/" style="fill-rule:evenodd;clip-rule:evenodd;stroke-linejoin:round;stroke-miterlimit:2;"><rect id="acikek_icon" x="-0" y="0" width="374.914" height="374.914" style="fill:none;"/><clipPath id="_clip1"><rect x="-0" y="0" width="374.914" height="374.914"/></clipPath><g clip-path="url(#_clip1)"><g id="Layer1"><path d="M227.457,4.285c71.38,15.539 127.633,71.793 143.173,143.172l-41.215,0c-13.869,-49.252 -52.706,-88.089 -101.958,-101.958l0,-41.214Zm-80,366.345c-71.379,-15.54 -127.633,-71.793 -143.172,-143.173l41.214,0c13.869,49.252 52.706,88.089 101.958,101.958l0,41.215Z" style="fill:#ebebeb;"/><path d="M227.457,4.285c71.38,15.539 127.633,71.793 143.173,143.172l-41.215,0c-13.869,-49.252 -52.706,-88.089 -101.958,-101.958l0,-41.214Zm-80,366.345c-71.379,-15.54 -127.633,-71.793 -143.172,-143.173l41.214,0c13.869,49.252 52.706,88.089 101.958,101.958l0,41.215Z"/></g><path d="M-0,187.457c-0,-103.46 83.997,-187.457 187.457,-187.457l0,187.457l-187.457,0Zm374.914,0c0,103.461 -83.996,187.457 -187.457,187.457l0,-187.457l187.457,0Z"/></g></svg>