<?xml version="1.0" encoding="UTF-8" standalone="no"?><!DOCTYPE svg PUBLIC "-//W3C//DTD SVG 1.1//EN" "http://www.w3.org/Graphics/SVG/1.1/DTD/svg11.dtd"><svg width="100%" height="100%" viewBox="0 0 1349 349" version="1.1" xmlns="http://www.w3.org/2000/svg" xmlns:xlink="http://www.w3.org/1999/xlink" xml:space="preserve" xmlns:serif="http://www.serif.com/" style="fill-rule:evenodd;clip-rule:evenodd;stroke-linejoin:round;stroke-miterlimit:2;"><rect id="acikek_text" x="0.227" y="0.038" width="1348.5" height="348.8" style="fill:none;"/><clipPath id="_clip1"><rect x="0.227" y="0.038" width="1348.5" height="348.8"/></clipPath><g clip-path="url(#_clip1)"><g><path d="M72.454,348.914c-12.889,0 -24.813,-2.594 -35.771,-7.783c-10.958,-5.19 -19.77,-12.994 -26.435,-23.415c-6.665,-10.421 -9.997,-23.443 -9.997,-39.066c-0,-14.132 3.825,-26.205 11.475,-36.218c7.651,-10.013 18.096,-18.163 31.337,-24.449c13.242,-6.289 28.375,-10.981 45.398,-14.076c17.025,-3.097 34.95,-4.757 53.774,-4.979l-0,-13.632c-0,-12.221 -1.293,-21.896 -3.877,-29.025c-2.585,-7.131 -7.292,-12.26 -14.123,-15.386c-6.828,-3.126 -16.619,-4.69 -29.371,-4.69c-16.638,0 -31.202,2.552 -43.692,7.656c-12.488,5.104 -22.172,9.428 -29.052,12.971l-12.016,-24.53c3.104,-2.699 9.462,-6.606 19.074,-11.721c9.613,-5.115 21.284,-9.787 35.015,-14.015c13.733,-4.229 28.299,-6.343 43.699,-6.343c20.835,0 37.307,2.987 49.416,8.959c12.112,5.971 20.771,15.245 25.978,27.823c5.207,12.575 7.811,28.798 7.811,48.667l-0,134.862l24.594,0l-0,21.027c-3.219,0.792 -7.614,1.69 -13.186,2.694c-5.57,1.003 -11.47,1.88 -17.7,2.63c-6.231,0.75 -11.922,1.126 -17.073,1.126c-8.394,-0 -14.192,-1.245 -17.395,-3.733c-3.2,-2.486 -4.8,-8.049 -4.8,-16.689l-0,-12.806c-3.583,3.809 -8.846,8.408 -15.789,13.797c-6.943,5.386 -15.251,10.124 -24.923,14.213c-9.673,4.088 -20.463,6.131 -32.371,6.131Zm22.246,-31.766c7.092,0 15.113,-2.085 24.063,-6.255c8.949,-4.17 16.773,-9.222 23.472,-15.154l-0,-72.667c-20.121,0.078 -36.632,2.355 -49.534,6.83c-12.9,4.472 -22.433,10.455 -28.599,17.949c-6.165,7.493 -9.248,15.932 -9.248,25.316c-0,10.157 1.714,18.476 5.143,24.957c3.429,6.479 8.147,11.269 14.153,14.371c6.007,3.102 12.857,4.653 20.55,4.653Z" style="fill-rule:nonzero;"/><path d="M348.594,348.914c-24.597,0 -44.96,-5.341 -61.09,-16.024c-16.127,-10.685 -28.174,-25.233 -36.14,-43.645c-7.966,-18.414 -11.989,-39.141 -12.067,-62.182c-0.078,-18.105 2.549,-34.911 7.881,-50.417c5.333,-15.507 13.173,-29.065 23.523,-40.672c10.349,-11.608 23.064,-20.658 38.145,-27.151c15.084,-6.492 32.338,-9.739 51.761,-9.739c10.609,0 20.131,0.835 28.565,2.503c8.437,1.669 15.805,3.523 22.105,5.563c6.3,2.04 11.51,3.652 15.631,4.834l-2.311,69.066l-31.535,-0l-10.014,-45.117c-0.495,-2.425 -2.33,-4.507 -5.506,-6.245c-3.176,-1.738 -6.946,-3.085 -11.311,-4.041c-4.363,-0.956 -8.657,-1.435 -12.883,-1.435c-11.812,0 -22.151,3.261 -31.017,9.783c-8.865,6.519 -15.802,16.399 -20.812,29.64c-5.01,13.238 -7.586,30.036 -7.729,50.394c-0.077,17.124 1.511,32.094 4.763,44.911c3.252,12.815 7.849,23.423 13.79,31.823c5.942,8.401 12.987,14.709 21.134,18.924c8.148,4.213 17.013,6.319 26.596,6.319c8.809,-0 17.029,-0.924 24.662,-2.772c7.632,-1.85 14.546,-4.164 20.74,-6.943c6.195,-2.782 11.475,-5.613 15.84,-8.493l8.848,19.306c-4.452,4.647 -10.805,9.432 -19.057,14.355c-8.253,4.92 -17.755,9.06 -28.505,12.42c-10.747,3.357 -22.083,5.035 -34.007,5.035Z" style="fill-rule:nonzero;"/><path d="M458.795,344.184l0,-23.015l32.922,-3.735l0,-175.944l-31.571,-7.801l-0,-25.256l71.407,-8.452l0.86,0l10.666,7.865l-0,209.92l32.193,3.403l-0,23.015l-116.477,0Zm54.446,-280.158c-9.787,-0 -17.213,-3.005 -22.276,-9.013c-5.062,-6.011 -7.593,-12.954 -7.593,-20.828c0,-8.992 2.76,-16.918 8.278,-23.778c5.521,-6.862 13.852,-10.293 24.994,-10.293l0.43,-0c9.784,-0 17.208,2.922 22.269,8.768c5.064,5.845 7.596,12.706 7.596,20.583c-0,8.992 -2.761,17 -8.281,24.026c-5.519,7.023 -13.848,10.535 -24.987,10.535l-0.43,-0Z" style="fill-rule:nonzero;"/><path d="M599.788,344.184l0,-23.015l26.217,-3.735l-0,-181.638l-32.7,-4.757l-0,-20.536l72.471,-8.586l0.726,-0l10.139,7.162l-0,99.968l-0.961,24.335l93.273,-100.691l-32.851,-5.432l-0,-21.923l108.958,0l-0,21.923l-34.29,5.826l-58.923,61.217l79.765,123.464l25.625,3.403l0,23.015l-108.41,0l-0,-23.015l25.242,-3.735l-56.783,-92.464l-41.801,43.161l1.055,19.438l-0,29.865l29.408,3.735l-0,23.015l-106.16,0Z" style="fill-rule:nonzero;"/><path d="M972.104,348.914c-24.812,0 -45.283,-5.303 -61.412,-15.91c-16.13,-10.606 -28.1,-25.3 -35.912,-44.081c-7.812,-18.784 -11.718,-40.366 -11.718,-64.746c0,-19.146 2.775,-36.416 8.325,-51.811c5.552,-15.397 13.371,-28.548 23.459,-39.453c10.087,-10.907 22.076,-19.271 35.968,-25.094c13.895,-5.823 29.184,-8.735 45.869,-8.735c27.668,0 48.98,7.452 63.936,22.357c14.956,14.902 22.837,36.158 23.643,63.768c0,8.891 -0.225,16.648 -0.675,23.27c-0.45,6.622 -1.249,12.463 -2.395,17.522l-144.719,0c0.329,13.427 2.076,25.654 5.241,36.681c3.167,11.026 7.698,20.506 13.595,28.441c5.899,7.933 13.164,14.037 21.796,18.312c8.631,4.273 18.604,6.41 29.918,6.41c11.933,-0 23.959,-2.107 36.08,-6.319c12.123,-4.215 21.449,-8.796 27.977,-13.744l9.238,20.536c-4.92,5.196 -11.975,10.284 -21.164,15.265c-9.187,4.981 -19.604,9.115 -31.252,12.403c-11.648,3.286 -23.581,4.928 -35.798,4.928Zm-55.594,-146.962l95.376,-0c0.298,-2.621 0.554,-5.652 0.769,-9.094c0.215,-3.445 0.323,-6.555 0.323,-9.332c-0,-17.303 -3.32,-31.441 -9.961,-42.413c-6.64,-10.971 -17.957,-16.457 -33.949,-16.457c-7.156,-0 -13.785,1.253 -19.888,3.759c-6.103,2.506 -11.493,6.666 -16.172,12.48c-4.676,5.814 -8.426,13.701 -11.251,23.66c-2.821,9.96 -4.571,22.425 -5.247,37.397Z" style="fill-rule:nonzero;"/><path d="M1091.28,344.184l0,-23.015l26.217,-3.735l-0,-181.638l-32.7,-4.757l-0,-20.536l72.471,-8.586l0.726,-0l10.139,7.162l-0,99.968l-0.961,24.335l93.273,-100.691l-32.851,-5.432l-0,-21.923l108.958,0l-0,21.923l-34.29,5.826l-58.923,61.217l79.765,123.464l25.625,3.403l0,23.015l-108.41,0l-0,-23.015l25.242,-3.735l-56.783,-92.464l-41.801,43.161l1.055,19.438l-0,29.865l29.408,3.735l-0,23.015l-106.16,0Z" style="fill-rule:nonzero;"/></g></g></svg>